<svg width="46" height="43" viewBox="0 0 46 43" fill="none" xmlns="http://www.w3.org/2000/svg">
<path d="M12.7778 27.8235H35.7778C37.1833 27.8235 38.3333 28.9618 38.3333 30.3529C38.3333 31.7441 37.1833 32.8824 35.7778 32.8824H10.2222C8.81667 32.8824 7.66667 31.7441 7.66667 30.3529V5.05882H2.55556C1.15 5.05882 0 3.92059 0 2.52941C0 1.13824 1.15 0 2.55556 0H10.2222C11.6278 0 12.7778 1.13824 12.7778 2.52941V7.58824H46L35.7778 25.2941H12.7778V27.8235ZM11.5 35.4118C13.6211 35.4118 15.3333 37.1065 15.3333 39.2059C15.3333 41.3053 13.6211 43 11.5 43C9.37889 43 7.66667 41.3053 7.66667 39.2059C7.66667 37.1065 9.37889 35.4118 11.5 35.4118ZM34.5 35.4118C36.6211 35.4118 38.3333 37.1065 38.3333 39.2059C38.3333 41.3053 36.6211 43 34.5 43C32.3789 43 30.6667 41.3053 30.6667 39.2059C30.6667 37.1065 32.3789 35.4118 34.5 35.4118Z" fill="white"/>
</svg>
