<svg width="44" height="43" viewBox="0 0 44 43" fill="none" xmlns="http://www.w3.org/2000/svg">
<path d="M34.723 30.9408L44 40.0048L40.9351 43L31.6603 33.9339C28.2093 36.6375 23.9169 38.108 19.4939 38.1018C8.73329 38.1018 0 29.567 0 19.0509C0 8.5348 8.73329 0 19.4939 0C30.2546 0 38.9879 8.5348 38.9879 19.0509C38.9942 23.3733 37.4895 27.5682 34.723 30.9408ZM30.3781 29.3701C33.127 26.6075 34.6621 22.9043 34.6559 19.0509C34.6559 10.8632 27.8698 4.23353 19.4939 4.23353C11.1159 4.23353 4.33199 10.8632 4.33199 19.0509C4.33199 27.2364 11.1159 33.8683 19.4939 33.8683C23.437 33.8743 27.2263 32.3741 30.0532 29.6877L30.3781 29.3701Z" fill="white"/>
</svg>
