<svg width="347" height="69" viewBox="0 0 347 69" fill="none" xmlns="http://www.w3.org/2000/svg">
<path d="M61.2695 2.66406C60.4492 4.53906 59.7168 6.17969 59.0723 7.58594C58.4277 8.99219 57.8711 10.1934 57.4023 11.1895C56.875 12.3027 56.4355 13.2988 56.084 14.1777C55.791 14.8223 55.4102 15.7012 54.9414 16.8145C54.4727 17.8105 53.8867 19.1289 53.1836 20.7695C52.5391 22.3516 51.6895 24.4023 50.6348 26.9219C50.1074 24.7539 49.4629 22.8496 48.7012 21.209C47.9395 19.5684 47.1191 18.1328 46.2402 16.9023C45.3613 15.6719 44.4238 14.6758 43.4277 13.9141C42.4902 13.0937 41.5527 12.4199 40.6152 11.8926C38.4473 10.7207 36.1621 10.0762 33.7598 9.95898C30.5957 10.1348 28.1055 10.6621 26.2891 11.541C24.5312 12.3613 23.2422 13.3281 22.4219 14.4414C21.6016 15.4961 21.1621 16.6094 21.1035 17.7812C21.0449 18.8945 21.1914 19.832 21.543 20.5938C21.8359 21.2969 22.8613 22.1172 24.6191 23.0547C26.4355 23.9922 28.6035 25.0762 31.123 26.3066C33.7012 27.4785 36.4551 28.8262 39.3848 30.3496C42.3145 31.8145 45.0098 33.4551 47.4707 35.2715C49.9902 37.0293 52.0996 38.9629 53.7988 41.0723C55.5566 43.123 56.5234 45.3203 56.6992 47.6641C56.875 50.6523 56.8457 53.3477 56.6113 55.75C56.377 58.1523 55.5566 60.2031 54.1504 61.9023C52.7441 63.6016 50.5469 64.9492 47.5586 65.9453C44.6289 66.9414 40.5566 67.5566 35.3418 67.791C29.9512 68.0254 25.5273 67.7324 22.0703 66.9121C18.6133 66.0918 15.8008 64.9785 13.6328 63.5723C11.5234 62.166 9.94141 60.6133 8.88672 58.9141C7.89062 57.2148 7.1582 55.6035 6.68945 54.0801C6.2207 52.498 5.89844 51.1504 5.72266 50.0371C5.54688 48.8652 5.25391 48.1621 4.84375 47.9277C4.375 47.6348 3.90625 47.3711 3.4375 47.1367C3.02734 46.9023 2.58789 46.6973 2.11914 46.5215C1.65039 46.2871 1.18164 46.082 0.712891 45.9062L26.2891 41.7754C24.8242 42.9473 23.6816 44.0312 22.8613 45.0273C22.0996 46.0234 21.5137 46.9023 21.1035 47.6641C20.6348 48.543 20.3125 49.3633 20.1367 50.125C20.0195 50.9453 20.2832 51.9707 20.9277 53.2012C21.5723 54.4316 22.4512 55.6328 23.5645 56.8047C24.7363 57.918 26.084 58.8555 27.6074 59.6172C29.1309 60.3789 30.7129 60.7012 32.3535 60.584C34.4043 60.4082 36.0742 59.9102 37.3633 59.0898C38.6523 58.2109 39.6191 57.127 40.2637 55.8379C40.9668 54.5488 41.377 53.1426 41.4941 51.6191C41.6113 50.0957 41.4648 48.6016 41.0547 47.1367C40.7031 45.6133 40.1172 44.207 39.2969 42.918C38.4766 41.5703 37.5098 40.457 36.3965 39.5781C35.4004 38.875 33.8477 38.2012 31.7383 37.5566C29.6875 36.9121 27.373 36.209 24.7949 35.4473C22.2754 34.6855 19.668 33.8066 16.9727 32.8105C14.3359 31.8145 11.9336 30.584 9.76562 29.1191C7.65625 27.6543 5.95703 25.9258 4.66797 23.9336C3.4375 21.9414 2.96875 19.5391 3.26172 16.7266C3.49609 14.3242 4.25781 12.332 5.54688 10.75C6.89453 9.10938 8.56445 7.82031 10.5566 6.88281C12.6074 5.88672 14.8633 5.1543 17.3242 4.68555C19.8438 4.2168 22.3926 3.95312 24.9707 3.89453C27.6074 3.77734 30.1855 3.80664 32.7051 3.98242C35.2832 4.1582 37.5977 4.36328 39.6484 4.59766C41.6992 4.83203 43.4277 5.06641 44.834 5.30078C46.2988 5.47656 47.207 5.59375 47.5586 5.65234C49.082 5.76953 50.6055 5.74023 52.1289 5.56445C53.4766 5.44727 54.9414 5.18359 56.5234 4.77344C58.1641 4.30469 59.7461 3.60156 61.2695 2.66406ZM58.1055 4.59766C60.1562 4.83203 61.8848 5.00781 63.291 5.125C64.6973 5.18359 65.8105 5.24219 66.6309 5.30078C67.627 5.35937 68.418 5.38867 69.0039 5.38867C70 5.38867 71.1426 5.35937 72.4316 5.30078C73.5449 5.24219 74.834 5.1543 76.2988 5.03711C77.8223 4.86133 79.4629 4.59766 81.2207 4.24609C80.4004 5.125 79.7266 5.97461 79.1992 6.79492C78.6719 7.55664 78.2617 8.25977 77.9688 8.9043C77.6172 9.60742 77.3242 10.252 77.0898 10.8379C76.8555 11.5996 76.5918 12.7715 76.2988 14.3535C76.0059 15.7012 75.6836 17.6055 75.332 20.0664C75.0391 22.5273 74.6582 25.75 74.1895 29.7344C76.1816 29.793 77.9102 29.8223 79.375 29.8223C80.8398 29.7637 82.0703 29.7344 83.0664 29.7344H85.9668C86.7871 29.6758 87.7246 29.6172 88.7793 29.5586C90.5371 29.5 93.2031 29.3242 96.7773 29.0312C97.0703 26.3359 97.2168 24.0215 97.2168 22.0879C97.2754 20.0957 97.2461 18.4258 97.1289 17.0781C97.0117 15.5547 96.8359 14.2656 96.6016 13.2109C96.4258 12.625 96.1621 11.9219 95.8105 11.1016C95.5176 10.3984 95.1074 9.54883 94.5801 8.55273C94.1113 7.49805 93.4668 6.23828 92.6465 4.77344C94.1699 5.00781 95.5176 5.18359 96.6895 5.30078C97.9199 5.35937 98.9453 5.41797 99.7656 5.47656C100.703 5.53516 101.494 5.56445 102.139 5.56445C102.783 5.56445 103.633 5.53516 104.688 5.47656C105.566 5.41797 106.65 5.38867 107.939 5.38867C109.229 5.33008 110.811 5.24219 112.686 5.125C112.217 5.94531 111.807 6.79492 111.455 7.67383C111.104 8.55273 110.811 9.34375 110.576 10.0469C110.342 10.8672 110.107 11.6875 109.873 12.5078C109.58 13.7383 109.316 15.5254 109.082 17.8691C108.906 20.2129 108.73 22.8203 108.555 25.6914C108.438 28.5625 108.32 31.5508 108.203 34.6562C108.145 37.7617 108.086 40.6914 108.027 43.4453C108.027 46.1992 108.057 48.6602 108.115 50.8281C108.174 52.9375 108.291 54.4316 108.467 55.3105C108.643 56.3652 108.936 57.4492 109.346 58.5625C109.697 59.5586 110.166 60.6426 110.752 61.8145C111.338 62.9277 112.1 63.9824 113.037 64.9785L91.8555 66.5605C92.7344 65.7402 93.4375 64.9492 93.9648 64.1875C94.4922 63.3672 94.9023 62.6641 95.1953 62.0781C95.4883 61.4336 95.6934 60.8184 95.8105 60.2324C95.8691 59.5293 95.957 58.2988 96.0742 56.541C96.1914 55.0762 96.3086 52.9961 96.4258 50.3008C96.543 47.6055 96.6602 44.0312 96.7773 39.5781C95.957 39.5781 94.9609 39.6074 93.7891 39.666C92.6758 39.666 91.6211 39.6953 90.625 39.7539C89.4531 39.8125 88.2227 39.8418 86.9336 39.8418C85.6445 39.9004 84.2969 39.959 82.8906 40.0176C81.7188 40.1348 80.4004 40.252 78.9355 40.3691C77.5293 40.4277 76.123 40.5156 74.7168 40.6328C74.5996 43.0938 74.5996 45.2617 74.7168 47.1367C74.834 48.9531 75.0098 50.5059 75.2441 51.7949C75.4785 53.3184 75.7715 54.6367 76.123 55.75C76.4746 56.8047 76.8555 57.8594 77.2656 58.9141C77.6172 59.8516 78.0273 60.8477 78.4961 61.9023C79.0234 62.957 79.5508 63.8945 80.0781 64.7148C78.9648 64.5977 77.9395 64.5098 77.002 64.4512C76.0645 64.334 75.2441 64.2168 74.541 64.0996C73.7207 64.041 72.9297 63.9824 72.168 63.9238C71.4062 63.9238 70.498 63.8945 69.4434 63.8359C68.5059 63.7773 67.334 63.748 65.9277 63.748C64.5215 63.6895 62.8809 63.6602 61.0059 63.6602C62.1191 62.5469 62.998 61.4629 63.6426 60.4082C64.3457 59.2949 64.8438 58.2988 65.1367 57.4199C65.4883 56.3652 65.7227 55.3984 65.8398 54.5195C65.8984 53.7578 65.9277 52.3223 65.9277 50.2129C65.9863 48.1035 65.9863 45.7012 65.9277 43.0059C65.9277 40.252 65.8984 37.3809 65.8398 34.3926C65.7812 31.3457 65.6934 28.5039 65.5762 25.8672C65.5176 23.2305 65.4297 20.9746 65.3125 19.0996C65.2539 17.166 65.1953 15.9648 65.1367 15.4961C64.8438 14.4414 64.4043 13.2988 63.8184 12.0684C63.291 11.0723 62.5879 9.92969 61.709 8.64062C60.8301 7.29297 59.6289 5.94531 58.1055 4.59766ZM146.875 0.730469C150.039 0.847656 153.232 1.43359 156.455 2.48828C159.736 3.48438 162.754 5.125 165.508 7.41016C168.262 9.63672 170.605 12.5371 172.539 16.1113C174.473 19.627 175.674 23.9336 176.143 29.0312C176.553 33.1914 176.025 37.3223 174.561 41.4238C173.154 45.4668 171.191 49.1875 168.672 52.5859C166.152 55.9844 163.252 58.8848 159.971 61.2871C156.689 63.6309 153.408 65.1836 150.127 65.9453C148.135 66.4141 145.938 66.4727 143.535 66.1211C141.191 65.7109 138.789 64.9785 136.328 63.9238C133.926 62.8105 131.553 61.4043 129.209 59.7051C126.924 58.0059 124.844 56.0723 122.969 53.9043C121.094 51.6777 119.512 49.2754 118.223 46.6973C116.992 44.1191 116.23 41.4238 115.938 38.6113C115.645 36.2676 115.615 33.6895 115.85 30.877C116.143 28.0059 116.699 25.1641 117.52 22.3516C118.398 19.4805 119.6 16.7266 121.123 14.0898C122.705 11.3945 124.697 9.05078 127.1 7.05859C129.502 5.00781 132.314 3.42578 135.537 2.3125C138.818 1.14062 142.598 0.613281 146.875 0.730469ZM131.143 36.3262C130.322 42.5957 130.908 47.6348 132.9 51.4434C134.951 55.252 138.027 57.5664 142.129 58.3867C144.121 58.7969 146.025 58.3867 147.842 57.1562C149.717 55.8672 151.416 54.0215 152.939 51.6191C154.463 49.2168 155.781 46.4043 156.895 43.1816C158.008 39.959 158.828 36.5898 159.355 33.0742C159.883 29.5586 159.912 26.3945 159.443 23.582C159.033 20.7109 158.301 18.2793 157.246 16.2871C156.191 14.2363 154.902 12.6543 153.379 11.541C151.914 10.4277 150.391 9.8125 148.809 9.69531C146.055 9.51953 143.652 10.252 141.602 11.8926C139.551 13.4746 137.822 15.5547 136.416 18.1328C135.01 20.7109 133.867 23.6113 132.988 26.834C132.168 30.0566 131.553 33.2207 131.143 36.3262ZM204.707 2.04883C206.758 2.04883 208.604 2.40039 210.244 3.10352C211.943 3.74805 213.496 4.48047 214.902 5.30078C216.367 6.12109 217.744 6.88281 219.033 7.58594C220.322 8.23047 221.641 8.55273 222.988 8.55273C224.043 8.49414 225.244 8.34766 226.592 8.11328C227.764 7.87891 229.111 7.52734 230.635 7.05859C232.217 6.53125 233.975 5.76953 235.908 4.77344C233.975 6.64844 232.393 8.23047 231.162 9.51953C229.99 10.75 229.082 11.7754 228.438 12.5957C227.676 13.5332 227.119 14.2656 226.768 14.793C226.416 15.4375 225.889 16.4043 225.186 17.6934C224.541 18.8652 223.662 20.4473 222.549 22.4395C221.436 24.373 220.029 26.9219 218.33 30.0859C218.33 26.043 217.92 22.9082 217.1 20.6816C216.338 18.4551 215.488 16.7559 214.551 15.584C213.438 14.2363 212.178 13.3867 210.771 13.0352C209.482 12.8594 208.193 13.0937 206.904 13.7383C205.615 14.3242 204.326 15.2031 203.037 16.375C201.807 17.5469 200.605 18.9531 199.434 20.5938C198.32 22.1758 197.295 23.8457 196.357 25.6035C195.479 27.3613 194.746 29.1484 194.16 30.9648C193.574 32.7227 193.193 34.3633 193.018 35.8867C192.842 37.2344 192.812 38.8164 192.93 40.6328C193.047 42.3906 193.311 44.207 193.721 46.082C194.131 47.8984 194.658 49.6855 195.303 51.4434C195.947 53.2012 196.738 54.7832 197.676 56.1895C198.672 57.5371 199.785 58.6504 201.016 59.5293C202.246 60.3496 203.652 60.7305 205.234 60.6719C206.992 60.5547 208.721 60.0273 210.42 59.0898C211.885 58.3281 213.379 57.1562 214.902 55.5742C216.426 53.9336 217.744 51.6191 218.857 48.6309L231.865 51.0039C228.115 55.5742 224.453 59.002 220.879 61.2871C217.363 63.5723 214.199 65.1836 211.387 66.1211C208.105 67.1758 205 67.6738 202.07 67.6152C198.379 67.2051 194.922 66.0918 191.699 64.2754C188.477 62.459 185.693 60.2617 183.35 57.6836C181.064 55.0469 179.277 52.1758 177.988 49.0703C176.699 45.9648 176.143 42.918 176.318 39.9297C176.436 37.9375 176.846 35.623 177.549 32.9863C178.252 30.291 179.189 27.5371 180.361 24.7246C181.592 21.9121 183.057 19.1582 184.756 16.4629C186.455 13.7676 188.33 11.3652 190.381 9.25586C192.432 7.08789 194.658 5.35937 197.061 4.07031C199.521 2.72266 202.07 2.04883 204.707 2.04883ZM233.447 4.24609C235.439 4.53906 237.197 4.74414 238.721 4.86133C240.303 4.97852 241.621 5.0957 242.676 5.21289C243.906 5.33008 244.961 5.38867 245.84 5.38867H249.268C251.553 5.38867 255.332 5.30078 260.605 5.125C259.316 5.53516 258.232 6.12109 257.354 6.88281C256.533 7.64453 255.859 8.43555 255.332 9.25586C254.688 10.1934 254.219 11.1602 253.926 12.1562C253.574 13.3867 253.252 15.0273 252.959 17.0781C252.666 18.8945 252.373 21.2676 252.08 24.1973C251.846 27.127 251.611 30.7891 251.377 35.1836C253.896 32.3125 256.094 29.7637 257.969 27.5371C259.902 25.3105 261.572 23.3477 262.979 21.6484C264.385 19.9492 265.557 18.4844 266.494 17.2539C267.49 16.0234 268.311 14.9688 268.955 14.0898C270.479 12.0977 271.357 10.75 271.592 10.0469C271.65 9.63672 271.621 9.13867 271.504 8.55273C271.387 8.08398 271.211 7.52734 270.977 6.88281C270.742 6.17969 270.391 5.41797 269.922 4.59766C272.266 4.71484 274.258 4.80273 275.898 4.86133C277.598 4.91992 279.004 4.97852 280.117 5.03711C281.406 5.0957 282.461 5.125 283.281 5.125H286.973C288.32 5.125 290.078 5.125 292.246 5.125C294.414 5.06641 297.139 5.00781 300.42 4.94922C298.252 5.47656 296.201 6.17969 294.268 7.05859C292.334 7.9375 290.605 8.78711 289.082 9.60742C287.324 10.6035 285.684 11.6289 284.16 12.6836C282.637 13.8555 280.938 15.2324 279.062 16.8145C277.48 18.1621 275.635 19.832 273.525 21.8242C271.416 23.7578 269.131 26.0137 266.67 28.5918C269.307 33.748 271.592 37.9961 273.525 41.3359C275.518 44.6172 277.188 47.2539 278.535 49.2461C280.059 51.5898 281.348 53.377 282.402 54.6074C283.457 55.7207 284.688 56.8633 286.094 58.0352C287.266 59.0312 288.73 60.1445 290.488 61.375C292.246 62.5469 294.268 63.6895 296.553 64.8027L271.504 66.0332C271.855 65.5645 272.061 65.0078 272.119 64.3633C272.236 63.6602 272.295 63.0156 272.295 62.4297C272.295 61.7852 272.236 61.082 272.119 60.3203C271.885 59.3828 271.27 57.8594 270.273 55.75C269.453 53.9336 268.193 51.3848 266.494 48.1035C264.795 44.7637 262.451 40.3691 259.463 34.9199L251.992 42.7422C251.699 44.6172 251.553 46.3164 251.553 47.8398C251.553 49.3633 251.611 50.623 251.729 51.6191C251.904 52.8496 252.139 53.9043 252.432 54.7832C252.783 55.6621 253.281 56.6582 253.926 57.7715C254.453 58.7676 255.156 59.9395 256.035 61.2871C256.914 62.6348 258.027 64.1289 259.375 65.7695C258.027 65.418 256.68 65.1836 255.332 65.0664C253.984 64.8906 252.754 64.7734 251.641 64.7148C250.352 64.6562 249.121 64.6855 247.949 64.8027C246.719 64.9199 245.283 65.0957 243.643 65.3301C242.236 65.5645 240.508 65.8574 238.457 66.209C236.406 66.5605 234.062 67 231.426 67.5273C232.715 66.7656 233.74 65.9453 234.502 65.0664C235.264 64.1875 235.879 63.3379 236.348 62.5176C236.875 61.5801 237.227 60.6719 237.402 59.793C237.52 59.0312 237.607 57.3906 237.666 54.8711C237.783 52.3516 237.842 49.4219 237.842 46.082C237.9 42.6836 237.9 39.1094 237.842 35.3594C237.783 31.6094 237.725 28.0938 237.666 24.8125C237.607 21.5312 237.52 18.748 237.402 16.4629C237.344 14.1191 237.285 12.6836 237.227 12.1562C237.051 11.3359 236.816 10.457 236.523 9.51953C236.23 8.69922 235.82 7.84961 235.293 6.9707C234.824 6.0332 234.209 5.125 233.447 4.24609ZM346.123 2.66406C345.303 4.53906 344.57 6.17969 343.926 7.58594C343.281 8.99219 342.725 10.1934 342.256 11.1895C341.729 12.3027 341.289 13.2988 340.938 14.1777C340.645 14.8223 340.264 15.7012 339.795 16.8145C339.326 17.8105 338.74 19.1289 338.037 20.7695C337.393 22.3516 336.543 24.4023 335.488 26.9219C334.961 24.7539 334.316 22.8496 333.555 21.209C332.793 19.5684 331.973 18.1328 331.094 16.9023C330.215 15.6719 329.277 14.6758 328.281 13.9141C327.344 13.0937 326.406 12.4199 325.469 11.8926C323.301 10.7207 321.016 10.0762 318.613 9.95898C315.449 10.1348 312.959 10.6621 311.143 11.541C309.385 12.3613 308.096 13.3281 307.275 14.4414C306.455 15.4961 306.016 16.6094 305.957 17.7812C305.898 18.8945 306.045 19.832 306.396 20.5938C306.689 21.2969 307.715 22.1172 309.473 23.0547C311.289 23.9922 313.457 25.0762 315.977 26.3066C318.555 27.4785 321.309 28.8262 324.238 30.3496C327.168 31.8145 329.863 33.4551 332.324 35.2715C334.844 37.0293 336.953 38.9629 338.652 41.0723C340.41 43.123 341.377 45.3203 341.553 47.6641C341.729 50.6523 341.699 53.3477 341.465 55.75C341.23 58.1523 340.41 60.2031 339.004 61.9023C337.598 63.6016 335.4 64.9492 332.412 65.9453C329.482 66.9414 325.41 67.5566 320.195 67.791C314.805 68.0254 310.381 67.7324 306.924 66.9121C303.467 66.0918 300.654 64.9785 298.486 63.5723C296.377 62.166 294.795 60.6133 293.74 58.9141C292.744 57.2148 292.012 55.6035 291.543 54.0801C291.074 52.498 290.752 51.1504 290.576 50.0371C290.4 48.8652 290.107 48.1621 289.697 47.9277C289.229 47.6348 288.76 47.3711 288.291 47.1367C287.881 46.9023 287.441 46.6973 286.973 46.5215C286.504 46.2871 286.035 46.082 285.566 45.9062L311.143 41.7754C309.678 42.9473 308.535 44.0312 307.715 45.0273C306.953 46.0234 306.367 46.9023 305.957 47.6641C305.488 48.543 305.166 49.3633 304.99 50.125C304.873 50.9453 305.137 51.9707 305.781 53.2012C306.426 54.4316 307.305 55.6328 308.418 56.8047C309.59 57.918 310.938 58.8555 312.461 59.6172C313.984 60.3789 315.566 60.7012 317.207 60.584C319.258 60.4082 320.928 59.9102 322.217 59.0898C323.506 58.2109 324.473 57.127 325.117 55.8379C325.82 54.5488 326.23 53.1426 326.348 51.6191C326.465 50.0957 326.318 48.6016 325.908 47.1367C325.557 45.6133 324.971 44.207 324.15 42.918C323.33 41.5703 322.363 40.457 321.25 39.5781C320.254 38.875 318.701 38.2012 316.592 37.5566C314.541 36.9121 312.227 36.209 309.648 35.4473C307.129 34.6855 304.521 33.8066 301.826 32.8105C299.189 31.8145 296.787 30.584 294.619 29.1191C292.51 27.6543 290.811 25.9258 289.521 23.9336C288.291 21.9414 287.822 19.5391 288.115 16.7266C288.35 14.3242 289.111 12.332 290.4 10.75C291.748 9.10938 293.418 7.82031 295.41 6.88281C297.461 5.88672 299.717 5.1543 302.178 4.68555C304.697 4.2168 307.246 3.95312 309.824 3.89453C312.461 3.77734 315.039 3.80664 317.559 3.98242C320.137 4.1582 322.451 4.36328 324.502 4.59766C326.553 4.83203 328.281 5.06641 329.688 5.30078C331.152 5.47656 332.061 5.59375 332.412 5.65234C333.936 5.76953 335.459 5.74023 336.982 5.56445C338.33 5.44727 339.795 5.18359 341.377 4.77344C343.018 4.30469 344.6 3.60156 346.123 2.66406Z" fill="black"/>
</svg>
